<svg width="166" height="34" viewBox="0 0 166 34" fill="none" xmlns="http://www.w3.org/2000/svg">
<path d="M11.6015 4.83384L7.3102 0.259277C2.4057 5.25716 -0.0460353 11.1525 0.000654431 16.9991C0.000654431 22.8467 2.45239 28.6933 7.35689 33.7389L11.6005 29.1654C8.67665 26.1005 6.60155 21.7148 6.55486 17.0468C6.50817 12.2368 8.53554 7.80434 11.6005 4.83384H11.6015Z" fill="url(#paint0_linear_71_777)"/>
<path d="M24.3336 4.83384L20.0423 0.259277C18.2971 1.95671 10.7998 7.4744 10.7998 17.0468C10.7998 26.7137 18.2971 32.0892 20.089 33.74L24.3326 29.1665C14.8068 21.7635 14.7124 11.9079 24.3326 4.83487L24.3336 4.83384Z" fill="url(#paint1_linear_71_777)"/>
<path d="M154.398 29.1663L158.69 33.7409C163.594 28.743 166.046 22.8477 165.999 17.0011C165.999 11.1534 163.548 5.30684 158.643 0.26123L154.399 4.83475C157.323 7.89968 159.398 12.2854 159.445 16.9533C159.492 21.7634 157.464 26.1958 154.399 29.1663H154.398Z" fill="url(#paint2_linear_71_777)"/>
<path d="M141.666 29.1664L145.957 33.741C147.702 32.0435 155.2 26.5258 155.2 16.9534C155.2 7.28654 147.702 1.911 145.911 0.260254L141.667 4.83378C151.193 12.2367 151.287 22.0924 141.667 29.1654L141.666 29.1664Z" fill="url(#paint3_linear_71_777)"/>
<path d="M26.7937 25.4978C26.7937 25.4978 25.3359 22.1932 25.3359 17.4796C25.3359 13.2038 26.7937 9.46138 26.7937 9.46138H31.9441C31.9441 9.46138 30.4376 13.2028 30.4376 17.5273C30.4376 22.1921 31.9441 25.4967 31.9441 25.4967H26.7937V25.4978ZM35.4915 25.4978C34.7621 20.3951 34.7144 14.5153 35.4915 9.46242H40.4479L40.0588 11.4545C41.3713 9.89923 42.8768 9.17087 44.6261 9.17087C46.8132 9.17087 48.271 10.0943 49.2421 12.0376C50.4571 10.3371 52.3039 9.17087 54.6841 9.17087C58.5718 9.17087 60.3211 11.6496 60.3211 15.6825V25.4988H55.2184V16.0229C55.2184 14.2735 54.4413 13.3989 52.9835 13.3989C51.4283 13.3989 50.262 14.5163 50.262 15.9253V25.4978H45.1594V16.0218C45.1594 14.4178 44.4787 13.3978 42.9245 13.3978C40.8836 13.3978 39.9114 14.4665 39.9114 18.5005C39.9114 20.2986 40.1055 23.7972 40.2518 25.4978H35.4894H35.4915ZM63.7243 32.0094V9.46242H68.5354L68.6329 11.1142C69.7016 9.89923 71.5484 9.17087 73.5405 9.17087C77.865 9.17087 80.489 12.8635 80.489 17.4318C80.489 22.0002 77.7675 25.7416 73.3942 25.7416C71.7902 25.7416 69.8956 25.0122 68.8269 23.9435V32.0094H63.7243ZM72.1305 21.416C74.2201 21.416 75.5316 19.9095 75.5316 17.4318C75.5316 14.9542 74.3654 13.3989 72.1305 13.3989C70.0409 13.3989 68.6319 14.9054 68.6319 17.4318C68.6319 19.7155 69.8956 21.416 72.1305 21.416ZM88.5061 25.7893C84.8612 25.7893 82.8691 23.4081 82.8691 19.2776V9.46138H87.923V18.6935C87.923 20.2488 88.6525 21.5603 90.4495 21.5603C92.0535 21.5603 93.0734 20.4916 93.0734 19.0338V9.46138H98.1761V25.4967H93.4138L93.2675 23.4559C92.344 24.8649 90.546 25.7883 88.5051 25.7883L88.5061 25.7893ZM101.918 25.4978V3.19458H107.02V25.4988H101.918V25.4978ZM116.155 25.7893C113.385 25.7893 110.664 24.8659 108.964 23.0191L112.025 20.3463C113.24 21.4638 114.796 22.1444 116.399 22.1444C117.273 22.1444 118.003 21.7553 118.003 20.9782C118.003 20.0548 117.03 19.7632 114.99 19.2776C111.88 18.5005 109.595 17.0428 109.595 14.1272C109.595 11.0177 112.754 9.12211 116.058 9.12211C118.391 9.12211 120.821 9.80274 122.764 11.552L120.14 14.4676C119.168 13.5929 117.565 12.6695 116.058 12.6695C114.99 12.6695 114.503 13.0098 114.503 13.8357C114.503 14.9044 116.01 15.2447 117.904 15.7313C120.626 16.5084 122.909 17.7722 122.909 20.3961C122.909 23.6032 119.896 25.7903 116.155 25.7903V25.7893ZM132.968 25.7893C128.206 25.7893 124.173 22.3882 124.173 17.4318C124.173 12.767 127.914 9.12211 132.968 9.12211C138.022 9.12211 141.666 12.5232 141.666 17.4318C141.666 22.3405 137.827 25.7893 132.968 25.7893ZM132.968 21.3673C135.107 21.3673 136.467 19.6667 136.467 17.4308C136.467 15.1949 135.058 13.4466 132.968 13.4466C130.879 13.4466 129.372 15.0984 129.372 17.4308C129.372 19.5204 130.685 21.3673 132.968 21.3673Z" fill="white"/>
<defs>
<linearGradient id="paint0_linear_71_777" x1="5.8016" y1="-15.4243" x2="5.8016" y2="28.3426" gradientUnits="userSpaceOnUse">
<stop stop-color="#5700C9"/>
<stop offset="0.44" stop-color="#7D00FF"/>
<stop offset="1" stop-color="#81E0FF"/>
</linearGradient>
<linearGradient id="paint1_linear_71_777" x1="17.5677" y1="-2.8928" x2="17.5677" y2="33.518" gradientUnits="userSpaceOnUse">
<stop stop-color="#5700C9"/>
<stop offset="0.44" stop-color="#7D00FF"/>
<stop offset="1" stop-color="#81E0FF"/>
</linearGradient>
<linearGradient id="paint2_linear_71_777" x1="160.198" y1="49.4245" x2="160.198" y2="5.65753" gradientUnits="userSpaceOnUse">
<stop stop-color="#5700C9"/>
<stop offset="0.44" stop-color="#7D00FF"/>
<stop offset="1" stop-color="#81E0FF"/>
</linearGradient>
<linearGradient id="paint3_linear_71_777" x1="148.433" y1="36.892" x2="148.433" y2="0.48229" gradientUnits="userSpaceOnUse">
<stop stop-color="#5700C9"/>
<stop offset="0.44" stop-color="#7D00FF"/>
<stop offset="1" stop-color="#81E0FF"/>
</linearGradient>
</defs>
</svg>
